<svg width="32" height="32" viewBox="0 0 32 32" fill="none" xmlns="http://www.w3.org/2000/svg">
<path d="M16.0001 2.66666C14.2491 2.66666 12.5153 3.01153 10.8976 3.6816C9.27996 4.35166 7.81011 5.33378 6.57199 6.5719C4.07151 9.07238 2.66675 12.4638 2.66675 16C2.66675 19.5362 4.07151 22.9276 6.57199 25.4281C7.81011 26.6662 9.27996 27.6483 10.8976 28.3184C12.5153 28.9884 14.2491 29.3333 16.0001 29.3333C19.5363 29.3333 22.9277 27.9286 25.4282 25.4281C27.9287 22.9276 29.3334 19.5362 29.3334 16H26.6667C26.6667 18.829 25.5429 21.5421 23.5426 23.5425C21.5422 25.5428 18.8291 26.6667 16.0001 26.6667C13.1711 26.6667 10.458 25.5428 8.45761 23.5425C6.45722 21.5421 5.33341 18.829 5.33341 16C5.33341 13.171 6.45722 10.4579 8.45761 8.45752C10.458 6.45713 13.1711 5.33332 16.0001 5.33332V2.66666ZM25.0401 3.99999C24.8001 4.00201 24.5705 4.09771 24.4001 4.26666L22.7734 5.87999L26.1067 9.21332L27.7334 7.59999C28.0801 7.25332 28.0801 6.66666 27.7334 6.33332L25.6667 4.26666C25.4934 4.09332 25.2667 3.99999 25.0401 3.99999ZM21.8267 6.82666L12.0001 16.6667V20H15.3334L25.1601 10.16L21.8267 6.82666Z" fill="black"/>
</svg>
