<svg width="48" height="48" viewBox="0 0 48 48" fill="none" xmlns="http://www.w3.org/2000/svg">
<path d="M24 5.25C20.2916 5.25 16.6665 6.34967 13.5831 8.40994C10.4996 10.4702 8.09641 13.3986 6.67727 16.8247C5.25812 20.2508 4.88681 24.0208 5.61028 27.6579C6.33376 31.2951 8.11952 34.636 10.7418 37.2583C13.364 39.8805 16.7049 41.6662 20.3421 42.3897C23.9792 43.1132 27.7492 42.7419 31.1753 41.3227C34.6014 39.9036 37.5298 37.5004 39.5901 34.4169C41.6503 31.3335 42.75 27.7084 42.75 24C42.7445 19.0289 40.7674 14.2629 37.2522 10.7478C33.7371 7.23265 28.9711 5.25546 24 5.25ZM12.9131 37.2038C14.026 35.2442 15.6383 33.6146 17.5858 32.481C19.5333 31.3473 21.7465 30.7501 24 30.7501C26.2535 30.7501 28.4667 31.3473 30.4142 32.481C32.3618 33.6146 33.9741 35.2442 35.0869 37.2038C31.9836 39.8169 28.057 41.25 24 41.25C19.943 41.25 16.0164 39.8169 12.9131 37.2038ZM36.2194 36.1631C34.3562 33.0481 31.3692 30.7664 27.8738 29.7881C29.4989 28.9238 30.7884 27.5409 31.537 25.8592C32.2855 24.1776 32.4502 22.294 32.0049 20.5079C31.5595 18.7219 30.5296 17.1362 29.0791 16.0029C27.6286 14.8697 25.8407 14.2541 24 14.2541C22.1593 14.2541 20.3715 14.8697 18.9209 16.0029C17.4704 17.1362 16.4405 18.7219 15.9952 20.5079C15.5498 22.294 15.7145 24.1776 16.463 25.8592C17.2116 27.5409 18.5011 28.9238 20.1263 29.7881C16.6309 30.7664 13.6438 33.0481 11.7806 36.1631C9.37435 33.7482 7.73757 30.6745 7.07697 27.33C6.41637 23.9855 6.76157 20.5203 8.06899 17.3718C9.37641 14.2234 11.5874 11.533 14.4228 9.64022C17.2582 7.74749 20.5909 6.73735 24 6.73735C27.4091 6.73735 30.7418 7.74749 33.5772 9.64022C36.4126 11.533 38.6236 14.2234 39.931 17.3718C41.2384 20.5203 41.5837 23.9855 40.923 27.33C40.2625 30.6745 38.6257 33.7482 36.2194 36.1631ZM24 29.25C22.665 29.25 21.3599 28.8541 20.2499 28.1124C19.1399 27.3707 18.2747 26.3165 17.7638 25.0831C17.2529 23.8497 17.1193 22.4925 17.3797 21.1831C17.6402 19.8738 18.283 18.671 19.227 17.727C20.171 16.783 21.3738 16.1401 22.6831 15.8797C23.9925 15.6192 25.3497 15.7529 26.5831 16.2638C27.8165 16.7747 28.8707 17.6399 29.6124 18.7499C30.3541 19.8599 30.75 21.165 30.75 22.5C30.75 24.2902 30.0388 26.0071 28.773 27.273C27.5071 28.5388 25.7902 29.25 24 29.25Z" fill="#F6820C"/>
</svg>
